# xmcd
#
# Track frame offsets:
# 150
# 19392
# 42004
# 62263
# 86058
# 105892
# 121849
# 136399
# 154128
# 174828
#
# Disc length: 2579 seconds
#
# Revision: 0
# Processed by: cddbd v1.4PL0 Copyright (c) Steve Scherf et al.
# Submitted via: MacMP3 Pro 5.0 (http://mp3.act2.co.jp/)
#
DISCID=6f0a110a
DTITLE=„gÏcÎ“ÚY - ÂÈÒ»«√…J…k≈[
DYEAR=1900
DGENRE=
TTITLE0=‚'«√ÏX
TTITLE1=Ë!=ËÛ« ≈AÒ?«Õ
TTITLE2=Í<pi>«ª«»ËÕË‰«...ËjÔ¸«?
TTITLE3=Û®Íÿ«Q«O«O«R
TTITLE4=ÍÿÁ~«»Ò»«√Û<sum>Íl«’
TTITLE5=ÂÈÒ»«√…J…k≈[
TTITLE6=Ët« ≈A«±«¢
TTITLE7=ÓÌ«¢…Â≈[…X«√Ï?ÈP
TTITLE8=«?«¥«fl«!=È˚«’
TTITLE9=Íl‰'«√≈u«¢≈v
EXTD=
EXTT0=
EXTT1=
EXTT2=
EXTT3=
EXTT4=
EXTT5=
EXTT6=
EXTT7=
EXTT8=
EXTT9=
PLAYORDER=
